<?xml version="1.0" standalone="no"?>
<!DOCTYPE svg PUBLIC "-//W3C//DTD SVG 20010904//EN"
 "http://www.w3.org/TR/2001/REC-SVG-20010904/DTD/svg10.dtd">
<svg version="1.0" xmlns="http://www.w3.org/2000/svg"
 width="300.000000pt" height="300.000000pt" viewBox="0 0 300.000000 300.000000"
 preserveAspectRatio="xMidYMid meet">
<metadata>
Created by potrace 1.11, written by Peter Selinger 2001-2013
</metadata>
<g transform="translate(0.000000,300.000000) scale(0.100000,-0.100000)"
fill="#000000" stroke="none">
<path d="M713 2634 c-79 -16 -148 -52 -204 -108 -146 -145 -152 -384 -11 -538
34 -37 40 -51 45 -104 3 -33 15 -86 27 -117 21 -55 95 -167 112 -167 4 0 7
-42 6 -94 -1 -93 -1 -94 -22 -81 -12 8 -43 17 -71 20 -27 3 -84 10 -125 15
-41 5 -97 12 -125 15 -27 3 -61 8 -75 10 -96 16 -132 16 -157 0 l-26 -17 6
-112 c3 -61 9 -124 12 -141 15 -80 49 -186 78 -245 57 -116 205 -244 307 -266
14 -2 44 -8 68 -13 l42 -8 0 33 0 34 101 -2 c97 -1 101 -2 110 -25 14 -37 13
-39 -39 -71 -105 -64 -151 -124 -138 -177 8 -30 39 -52 86 -58 19 -3 69 -14
110 -26 97 -26 124 -31 186 -32 45 -1 188 29 295 62 39 12 70 53 64 85 -2 10
-4 24 -4 31 -1 19 -72 87 -123 119 -31 19 -49 37 -52 54 -8 41 -17 140 -13
140 2 0 22 -9 45 -20 151 -73 393 -73 544 0 23 11 44 20 46 20 4 0 -4 -79 -13
-125 -2 -11 -4 -24 -4 -30 -1 -5 -22 -23 -49 -39 -54 -34 -121 -102 -124 -125
-5 -48 -2 -58 20 -83 22 -24 53 -37 102 -43 8 -1 51 -12 95 -24 106 -29 179
-28 300 4 55 15 116 29 135 32 47 6 78 28 86 58 13 53 -33 113 -138 177 -52
32 -53 34 -38 72 9 25 11 25 107 23 l98 -2 3 -29 c3 -27 5 -28 50 -23 140 15
276 113 357 256 21 36 54 113 61 141 32 129 33 138 41 268 5 91 4 105 -13 123
-20 23 -41 22 -244 -6 -22 -3 -59 -7 -82 -10 -24 -3 -59 -7 -78 -10 -19 -2
-60 -7 -90 -11 -30 -3 -63 -13 -73 -22 -17 -15 -18 -12 -16 78 3 92 4 95 36
130 35 36 89 136 99 180 3 14 8 48 11 76 5 44 12 58 47 92 76 73 120 196 110
308 -13 156 -118 289 -265 335 -150 47 -297 11 -403 -99 -36 -37 -76 -63 -155
-101 -141 -67 -214 -85 -316 -78 -135 8 -318 84 -390 161 -22 23 -56 54 -76
69 -74 55 -198 81 -296 61z"/>
</g>
</svg>
