<?xml version="1.0" encoding="utf-8"?>
<!-- Generator: Adobe Illustrator 22.0.1, SVG Export Plug-In . SVG Version: 6.00 Build 0)  -->
<svg version="1.1" id="Layer_1" xmlns="http://www.w3.org/2000/svg" xmlns:xlink="http://www.w3.org/1999/xlink" x="0px" y="0px"
	 viewBox="0 0 1364 156.3" style="enable-background:new 0 0 1364 156.3;" xml:space="preserve">
<style type="text/css">
	.st0{fill:#FFFFFF;}
</style>
<g>
	<path class="st0" d="M0.5,155.8V121h32.8v-3h4.9l11.9-4.6h16.7V66.3h17.6V56H93v9.6H108v27.5l20.9-10.5V79l0.6-4.4l0.1,0l0,0
		l0.6,3.9l0,4.6l23.6,9.6v3.1h3v15.3h10.9v-1.7h5v2.3h6.3v-2h10.3v3.3h8V93.5h1.7v-5H230v5h7.3v12.9h21.6v-2h5.6V86.5l7.2-7.2h17
		l6.6,6.6v14.8h23.6V119h8.3V96.1h17.6v-5.3h13.6v-9h19.2v10h19.9V80.9h9.6V70.6h2V47h2v-2.7h2v-2.7h1.7v-3.3h6v3.6h3.6v4.6h1.7
		v25.2h6.6v26.2l5.3,5.3v-5h9.6V53.3h4.6V17.5h3.3V8.2l15.6-0.3v8.6h4v1.3h2.7V52h5v29.1l4.1,17.4h3.9v2h4.6V74.9H519v18.2h3V77.2
		h1.7V56h4.3v-5.3h2.3v-10h0.3v9.6h0.9v1.3h6.9l0.4-1.3h1.4v-9.7h0.7v9.7h2.7v4h2.7v21.6h5v-1.3h12.3v1.3h9v6.3h9.6v5.3h7.3v-9.6
		h4.3V53h41.5v21.2h8v3h6v10.3h2.7V49.4h32.2v10.9h2.3v1h2.4l0.9,8.3l0,18h12.6V67.9h16.6v-1.7h14.6v2.3h13.3v32.1h4v-34l8.1-0.1
		l3,13.3h4.6v21.6h6.3v10.3h3v2.7h4v-4.3h2.3v2.3h6.6V82.2l4.9-4.9h13l4.3,4.3v8.5h5.7v-10h24.2v20.6h5V76.2h5.3v-5.3h12.6v20.6
		h12.6V117h3.3V94.8l9.2-14.4l1.9,10.7l2-10.8l9.1,11.7V78.9h6.3v-1.7h4v1.7h15.9v-2h13.9V56.7h6.7v20.2h1.7v4h9.3V56.9L969.8,37
		v-0.3L980,56.9v43.2h7V5.6h7.3V2.9h18.2v2.3h5.6v99.8h3.7V91.8h2.7V81.5h12.9v8.6h23.6v3.3h4v1.7h3v6.3h9.3v-3.3h6v2.7h3.3V89.5
		h6.6v0.3h-6.3v11h4.3v-7.3h5.6v-7.9l3.6-3.6l3.3,3.3v4.3h9.9c0.7,0.7,4.1,4.1,4.8,4.8c0.3,1.2,0.1,11.8-0.1,18.3l0,0.5h8.3V88.8
		h2.7v-3.3h3v2.3h5v-3.3h3v3l2,2v9.6h11.9l3-38.8l1.7-1.7V39.7h0.3V59h7.6V40.1h0.3v18.3l3.3,3.3l0.7,17.9h7.6v15.6h3.7v-2.3h5v2h4
		v2h2.7V84.9l3.4-3.4h4.3v-6.3h6.3v-3.3h2.7v3.3h10.6v-3.3h24.2v2.3h6.3v24.5h3.6v4.3h3.6v5h1.7v5.7l3-3V97.1h5.6v-2.3h3.6v2.4
		l2.8,2.8v28.7h10.8v-10h4V89.5l2.7-2.7h7.2l2.9,2.9v29.6h3.8v22.2h4v5h10.4v-42h14.3v-2.3h8v2h14.7v40.7l6-0.3l0.1,11.2H0.5z
		 M1082.9,89.2v-1h2.3v-2.3h0.3v3.3H1082.9z"/>
	<path class="st0" d="M1012,3.4v1.3v1h1h4.6v98.8v1h1h2.7h1v-1V92.3h1.7h1v-1V82h11.9v7.6v1h1h22.6V93v1h1h3v0.7v1h1h2v5.3v1h1h8.3
		h1v-1v-2.3h5v1.7v1h1h2.3h0.3h1h3.3h1v-1V94h4.6h1v-1v-7.2l3.1-3.1l2.8,2.8V89v1h1h9.2c0.9,0.9,3.7,3.7,4.5,4.5
		c0.2,1.6,0.1,10.3-0.1,18l0,1h1h7.3h1v-1V89.3h1.7h1v-1V86h2v1.3v1h1h4h1v-1V85h2v2.3v0.4l0.3,0.3l1.7,1.7v8.9v1h1h10.9h0.9
		l0.1-0.9l3-38.1l1.1-1.1h0.9h6.6h1v-0.2l2.7,2.7l0.7,17.2l0,1h1h6.6v14.6v1h1h2.7h1v-1v-1.3h4v1v1h1h3v1v1h1h1.7h1v-1V85.1l3.1-3.1
		h3.6h1v-1v-5.3h5.3h1v-1v-2.3h1.7v2.3v1h1h5.6h4h1v-1v-2.3h23.2v1.3v1h1h5.3v23.5v1h1h2.6v3.3v1h1h2.6v4v1h1h0.7v4v2.4l1.7-1.7l2-2
		l0.3-0.3v-0.4V97.6h4.6h1v-1v-1.3h2.6V97v0.4l0.3,0.3l2.5,2.5v27.9v1h1h9.8h1v-1v-9h3h1v-1V89.7l2.4-2.4h6.8l2.6,2.6v28.9v1h1h2.8
		v21.2v1h1h3v4v1h1h9.4h1v-1v-41h13.3h1v-1v-1.3h7v1v1h1h13.7v39.7v1l1,0l5-0.2l0.1,10.2H1v-33.8h31.8h1v-1v-2h4.3h0.2l0.2-0.1
		l11.8-4.6h16.1h1v-1V66.8h16.6h1v-1v-9.3h7.6v8.6v1h1h9.6h4.3v26.2v1.6l1.4-0.7l19.9-10l0.6-0.3v-0.6v-3.2l0.2-1.5l0.1,0.8v4.2v0.7
		l0.6,0.3l22.9,9.4v2.3v1h1h2v14.3v1h1h9.9h1v-1v-0.7h4v1.3v1h1h5.3h1v-1v-1h9.3v2.3v1h1h7h1v-1V94h0.7h1v-1v-4h30.2v4v1h1h6.3v11.9
		v1h1h17.2h3.3h1v-1v-1h4.6h1v-1V86.8l6.9-6.9h16.6l6.3,6.3v14.1v1h1h22.6v17.2v1h1h7.3h1v-1V96.6h16.6h1v-1v-4.3h12.6h1v-1v-8h18.2
		v9v1h1h18.9h1v-1v-9.9h8.6h1v-1v-9.3h1h1v-1V47.5h1h1v-1v-1.7h1h1v-1v-1.7h0.7h1v-1v-2.3h5v2.6v1h1h2.6v1v2.7v1h1h0.7v24.2v1h1h5.6
		v25.5v0.4l0.3,0.3l4.3,4.3l1.7,1.7v-2.4v-3.3h8.6h1v-1V53.8h3.6h1v-1V18h2.3h1v-1V8.7l14.6-0.3V16v1h1h3v0.3v1h1h1.7v33.2v1h1h4V81
		v0.1l0,0.1l4,16.9l0.2,0.8h0.8h3v1v1h1h3.6h1v-1V75.4h22.5v17.2v1h1h2h1v-1V77.7h0.7h1v-1V56.5h3.3h1v-1v-4.3h1.3h1v-0.3h0.3v0.3v1
		h1h6h0.8l0.2-0.7l0.2-0.6h0.6h0.7h1h1.7v3v1h1h1.7v20.6v1h1h4h1v-1v-0.3h11.3v0.3v1h1h8v5.3v1h1h8.6V87v1h1h6.3h1v-1v-8.6h3.3h1v-1
		V53.5h40.5v20.2v1h1h7v2v1h1h5V87v1h1h1.7h1v-1V49.9h31.2v9.9v1h1h1.3v1h1h1.5l0.9,7.8v17.5v1h1h11.6h1v-1V68.4h15.6h1v-1v-0.7
		h13.6v1.3v1h1H746v31.1v1h1h3h1v-1v-33l7.2-0.1l2.8,12.5l0.2,0.8h0.8h3.7v20.6v1h1h5.3v9.3v1h1h2v1.7v1h1h3h1v-1v-3.3h1.3v1.3v1h1
		h5.6h1v-1V82.4l4.6-4.6H806l4,4v7.8v1h1h4.7h1v-1v-9h23.2v19.6v1h1h4h1v-1V76.7h4.3h1v-1v-4.3h11.6V91v1h1h11.6v24.5v1h1h2.3h1v-1
		V94.9l8.4-13.2l1.2,6.8l1,5.4l1-5.4l1.3-7l7.6,9.7l1.8,2.3v-2.9V79.4h5.3h1v-1v-0.7h3v0.7v1h1h14.9h1v-1v-1H941h1v-1V57.2h5.7v19.2
		v1h1h0.7v3v1h1h8.3h1v-1V57.1L969.8,38l9.7,19.1v42.6v1h1h6h1v-1V6.1h6.3h1v-1V3.4H1012 M1013,2.4h-19.2v2.6h-7.3v94.5h-6V56.8
		l-10.3-20.2V29h-1v8l-10.6,19.9v23.6h-8.3v-4h-1.7V56.2H941v20.2h-13.9v2h-14.9v-1.7h-5v1.7h-6.3v12.3L892,79.2l-1.7,9.1l-1.7-9.3
		l-10,15.6v21.9h-2.3V91h-12.6V70.4h-13.6v5.3h-5.3v24.5h-4V79.7h-25.2v10H811v-8.2l-4.6-4.6H793l-5.1,5.1v29.9h-5.6v-2.3h-3.3v4.3
		h-3v-2.7h-3v-10.3h-6.3V79.4h-4.7l-3-13.3l-9,0.1v34h-3V68.1h-13.3v-2.3h-15.6v1.7h-16.6v19.8H690V69.6l-1-8.8h-2.4v-1h-2.3V48.9
		h-33.2V87h-1.7V76.7h-6v-3h-8V52.5h-42.5v24.9h-4.3V87h-6.3v-5.3h-9.6v-6.3h-9v-1.3h-13.3v1.3h-4V53.8H544v-4h-2.7v-9.7h-1.7v9.7
		h-1.3l-0.4,1.3h-6v-1.3h-0.9v-9.6h-1.3v10h-2.3v5.3h-4.3v21.2h-1.7v15.9h-2V74.4h-24.5v25.5h-3.6v-2h-4l-4-16.9V51.5h-5V17.3h-2.7
		V16h-4V7.4l-16.6,0.3V17h-3.3v35.8h-4.6v45.1h-9.6v4.3l-4.3-4.3V71.4h-6.6V46.2h-1.7v-2.7v-2h-3.6v-3.6h-7v3.3h-1.7v2.7h-2v2.7h-2
		v23.6h-2v10.3h-9.6v10.9h-18.9v-10h-20.2v9h-13.6v5.3h-17.6v22.9h-7.3v-18.2h-23.6V85.8l-6.9-6.9h-17.4l-7.5,7.5v17.6h-5.6v2h-3.3
		h-17.2V93h-7.3v-5h-32.2v5h-1.7v19.6h-7v-3.3h-11.3v2h-5.3v-2.3h-6v1.7h-9.9V95.3h-3v-3l-23.6-9.6v-4.3l-0.7-4.2l-0.5-0.1l-0.5,0.1
		l-0.6,4.9v3.3l-19.9,10V65.1h-5.3h-9.6v-9.6h-9.6v10.3H66.3v47.1H50.1l-11.9,4.6h-5.3v3H0v35.8h1365.1l-0.1-12.2l-6,0.3v-40.7
		h-14.7v-2h-9v2.3H1321v42h-9.4v-5h-4v-22.2h-3.8V89.5l-3.1-3.2h-7.6l-3,3v28.9h-4v10h-9.8V99.8l-2.8-2.8v-2.7h-4.6v2.3h-5.6v13.9
		l-2,2v-5h-1.7v-5h-3.6v-4.3h-3.6V73.7h-6.3v-2.3h-25.2v3.3h-4h-5.6v-3.3h-3.7v3.3h-6.3V81h-4l-3.6,3.6v11.6h-1.7v-2h-4v-2h-6v2.3
		h-2.7V79h-7.6l-0.7-17.6l-3.3-3.3V39.6h-1.3v18.9h-6.6V39.2h-1.3v19.2l-1.7,1.7l-3,38.5h-10.9v-9.3l-2-2V84h-4v3.3h-4V85h-4v3.3
		h-2.7v24.2h-7.3c0,0,0.5-18.1,0-18.6c-0.5-0.5-5-5-5-5h-9.6v-4l-3.8-3.8l-4.1,4.1V93h-5.6v7.3h-3.3v-10h6.3V89h-7.6v-3.6h-1.3v2.3
		h-2.3v2h3.6v10.6h-2.3v-2.7h-7v3.3h-8.3v-6.3h-3V93h-4v-3.3h-23.6V81H1024v10.3h-2.7v13.3h-2.7V4.7h-5.6V2.4L1013,2.4z"/>
</g>
</svg>
